<!DOCTYPE svg PUBLIC "-//W3C//DTD SVG 1.1//EN" "http://www.w3.org/Graphics/SVG/1.1/DTD/svg11.dtd">
<!-- Uploaded to: SVG Repo, www.svgrepo.com, Transformed by: SVG Repo Mixer Tools -->
<svg width="800px" height="800px" viewBox="-2.4 -2.4 28.80 28.80" id="Layer_1" data-name="Layer 1" xmlns="http://www.w3.org/2000/svg" fill="#000000">
<g id="SVGRepo_bgCarrier" stroke-width="0">
<path transform="translate(-2.4, -2.4), scale(0.8999999999999999)" d="M16,29.574993295485484C18.665312952670863,29.53938487731539,21.780616622473108,31.28180221818393,23.860313659972128,29.614462622499403C26.02337026666016,27.880291797130003,25.500524893378714,24.434273783440783,25.84356669039171,21.68318587848369C26.08233325958933,19.768352682216406,25.404003526342557,17.923511902405185,25.557943792027586,16C25.729886807326075,13.85154043362001,27.414635274810877,11.831205271042647,26.797294714796536,9.766178989892499C26.167143739336627,7.658301410316506,24.033041165782407,6.444609233377944,22.297246170394565,5.092849685108083C20.33833311449671,3.567335765217583,18.440133535144646,1.8162930418821828,16.000000000000004,1.3577285305980382C13.365710506203587,0.8626770684934835,10.054565958527776,0.5319741677443293,8.16995517219253,2.437964532695549C6.1774598352249175,4.453063322326983,8.160865444174354,8.202254844402994,6.783457179409314,10.678826521534248C5.442207880927083,13.090384597352735,0.904266727831934,13.25450695216826,0.6270845530225948,15.999999999999996C0.36123132594506585,18.63327967315015,4.394858724993261,19.645760274495665,5.642512523517681,21.979898182675235C6.953001154274796,24.4315888639413,5.77567179811315,28.182211271995833,8.017484829487163,29.826121847517555C10.201508275577943,31.427655601657392,13.291945379698161,29.611172739723184,16,29.574993295485484" fill="#3B945e" strokewidth="0"/>
</g>
<g id="SVGRepo_tracerCarrier" stroke-linecap="round" stroke-linejoin="round"/>
<g id="SVGRepo_iconCarrier">
<defs>
<style>.cls-1{fill:none;stroke:#F2F2F2;stroke-miterlimit:10;stroke-width:1.91px;}</style>
</defs>
<circle class="cls-1" cx="12" cy="7.25" r="5.73"/>
<path class="cls-1" d="M1.5,23.48l.37-2.05A10.3,10.3,0,0,1,12,13h0a10.3,10.3,0,0,1,10.13,8.45l.37,2.05"/>
</g>
</svg>