<!DOCTYPE svg PUBLIC "-//W3C//DTD SVG 1.1//EN" "http://www.w3.org/Graphics/SVG/1.1/DTD/svg11.dtd">
<!-- Uploaded to: SVG Repo, www.svgrepo.com, Transformed by: SVG Repo Mixer Tools -->
<svg width="800px" height="800px" viewBox="-2.4 -2.4 28.80 28.80" fill="none" xmlns="http://www.w3.org/2000/svg">
<g id="SVGRepo_bgCarrier" stroke-width="0">
<path transform="translate(-2.4, -2.4), scale(0.8999999999999999)" d="M16,27.639453236405785C18.088669557510187,28.14761320987279,20.159360846159906,29.509218931904616,22.23307580435261,28.94311527419552C24.287018582032033,28.382409226059153,25.412020936122143,26.21963214873337,26.873283710129634,24.67115440859692C28.438496155876493,23.012522796312297,30.389874885805842,21.604323953236623,31.17802865055384,19.46428599359565C31.991381194744196,17.255826937773648,31.97759910026042,14.765072682822519,31.35774754903477,12.494694340601496C30.746373802403483,10.255368310668086,29.370599578362345,8.278149433962481,27.6875613711052,6.679480825613661C26.098267791037436,5.169857487920501,24.150085485524432,3.8837197368739407,21.978465148357508,3.5855892007736276C19.917989136870354,3.30271709490272,18.078531638552363,5.147648755557701,16,5.07495591044426C13.816289372355977,4.998584622423617,11.980568735310783,2.8567498413658146,9.816704136207829,3.1602538374983222C7.637790242051936,3.465868650171494,5.353966919596408,4.751464345904554,4.349521998142771,6.709053825759014C3.319322830546711,8.716836442373054,4.949361658798899,11.16649148303803,4.567482184024108,13.39060241265437C4.2122559366810615,15.45948181411526,1.7090855219499694,17.109039385953537,2.2140036305168724,19.14656370930082C2.721937115360666,21.196256149425793,5.344364418933758,21.863697119887625,6.993913027865268,23.18211469823795C8.336627518646967,24.255292158888217,9.533789201543414,25.465811805744167,11.074328065542495,26.228263164396854C12.624488540643817,26.995476499932284,14.319395731626301,27.230572943515725,16,27.639453236405785" fill="#3B945e" strokewidth="0"/>
</g>
<g id="SVGRepo_tracerCarrier" stroke-linecap="round" stroke-linejoin="round"/>
<g id="SVGRepo_iconCarrier"> <path d="M12 22C17.5228 22 22 17.5228 22 12C22 6.47715 17.5228 2 12 2C6.47715 2 2 6.47715 2 12C2 13.5997 2.37562 15.1116 3.04346 16.4525C3.22094 16.8088 3.28001 17.2161 3.17712 17.6006L2.58151 19.8267C2.32295 20.793 3.20701 21.677 4.17335 21.4185L6.39939 20.8229C6.78393 20.72 7.19121 20.7791 7.54753 20.9565C8.88837 21.6244 10.4003 22 12 22Z" stroke="#F2F2F2" stroke-width="1.5"/> <path opacity="0.5" d="M8 12H8.009M11.991 12H12M15.991 12H16" stroke="#F2F2F2" stroke-width="2" stroke-linecap="round" stroke-linejoin="round"/> </g>
</svg>